<mxfile host="app.diagrams.net" modified="2023-04-18T16:28:35.168Z" agent="Mozilla/5.0 (Macintosh; Intel Mac OS X 10_15_7) AppleWebKit/537.36 (KHTML, like Gecko) Chrome/112.0.0.0 Safari/537.36" version="21.1.8" etag="vyS5O8tJ3nsYE9rgyznR" type="github">
  <diagram name="Page-1" id="z0igBxr2sq65gchA8lYS">
    <mxGraphModel>
      <root>
        <mxCell id="0" />
        <mxCell id="1" parent="0" />
      </root>
    </mxGraphModel>
  </diagram>
</mxfile>
